<svg xmlns="http://www.w3.org/2000/svg"
  xmlns:xlink="http://www.w3.org/1999/xlink" viewBox="0 0 173.22 40.01">
  <defs>
    <linearGradient id="linear-gradient" x1="-.02" y1="4.98" x2="30.64" y2="31.5" gradientUnits="userSpaceOnUse">
      <stop offset="0" stop-color="#53c0ed"/>
      <stop offset="1" stop-color="#0070af"/>
    </linearGradient>
  </defs>
  <g>
    <g>
      <path fill="url(#linear-gradient)" d="m33.84,9.36L18.22.24c-.54-.31-1.2-.31-1.74,0L.87,9.36c-.54.31-.87.89-.87,1.52v18.24c0,.63.33,1.21.87,1.52l9.78,5.7v-4.29c0-.24-.3-.62-.51-.74l-.47-.28s0,0,0,0l-4.95-2.87c-.41-.24-.67-.69-.67-1.17v-13.99c0-.48.25-.93.67-1.17l11.97-6.99c.41-.24.92-.24,1.33,0l11.97,6.99c.41.24.67.69.67,1.17v13.99c0,.48-.25.93-.67,1.17l-8.64,5.11s-.76.45-1.33.12c-.6-.34-.58-1.01-.58-1.01v-6.07s0-.03,0-.04c0-.01,0-.03,0-.04v-.04s0-.05,0-.07c-.08-1.14-1.02-2.16-2.17-2.16s-2.17,1.09-2.17,2.31c0,.02,0,.03,0,.05v11.69s0,.03,0,.04h0c.05.65.59,1.37,1.27,1.71h0c.22.14.57.22.82.24.11.01.22.01.32,0,.24-.02.48-.1.7-.22l15.61-9.12c.54-.31.87-.9.87-1.52V10.88c0-.63-.33-1.21-.87-1.52Z"/>
      <path fill="#0074b3" d="m20.51,19.95c0,1.76-1.42,3.18-3.18,3.18s-3.18-1.42-3.18-3.18,1.42-3.18,3.18-3.18,3.18,1.42,3.18,3.18Z"/>
    </g>
    <g>
      <path fill="#0074b3" d="m45.8,23.4h3.65c0,1.09.52,1.09,1.58,1.09h4.45c.78,0,1.56-.11,1.56-1.33s-.38-1.41-5.12-1.41c-5.49,0-6.13-.87-6.13-4.74,0-2.87.22-5.04,4.81-5.04h5.08c4.23,0,4.62,1.96,4.62,4.43h-3.65c0-1.09-.9-.96-1.77-.96h-4.05c-.81,0-1.38.36-1.38,1.21,0,1.37.45,1.42,4.35,1.39,5.66,0,6.98.43,6.98,5.02,0,4.24-1.09,4.93-5.92,4.93h-4.41c-3.31.04-4.65-.81-4.65-4.18v-.41Z"/>
      <path fill="#0074b3" d="m139.45,23.4h3.64c0,1.09.52,1.09,1.58,1.09h4.47c.77,0,1.56-.11,1.56-1.33s-.43-1.41-5.13-1.41c-5.43,0-6.11-.87-6.11-4.74,0-2.87.2-5.04,4.79-5.04h5.1c4.19,0,4.61,1.96,4.61,4.43h-3.65c0-1.09-.91-.96-1.78-.96h-4.04c-.81,0-1.37.36-1.37,1.21,0,1.37.43,1.42,4.35,1.39,5.66,0,6.98.43,6.98,5.02,0,4.24-1.09,4.93-5.92,4.93h-4.42c-3.32,0-4.64-.83-4.64-4.23v-.37Z"/>
      <path fill="#0074b3" d="m62.78,17.66c0-4.61,1.96-5.69,5.25-5.69h5.83c3.26,0,5.24,1.09,5.24,5.69v4.68c0,4.61-1.96,5.69-5.24,5.69h-5.83c-3.26,0-5.25-1.09-5.25-5.69v-4.68m3.75,3.19c0,2.27.36,3.14,2.09,3.14h4.66c1.72,0,2.09-.87,2.09-3.14v-1.69c0-1.96-.37-3.15-2.28-3.15h-4.27c-1.92,0-2.28,1.2-2.28,3.15v1.69Z"/>
      <polygon fill="#0074b3" points="81.3 12.14 86.9 12.14 91.01 22.26 95.13 12.14 100.73 12.14 100.73 27.87 97.19 27.87 97.19 16.57 97.15 16.57 92.37 27.87 89.64 27.87 84.88 16.57 84.84 16.57 84.84 27.87 81.3 27.87 81.3 12.14"/>
      <path fill="#0074b3" d="m108.46,12.14h4.7l6.52,15.72h-4.01l-1.09-2.77h-7.39l-1.09,2.77h-4.1l6.44-15.72m.07,9.6h4.64l-2.35-5.95-2.29,5.95Z"/>
      <polygon fill="#0074b3" points="121.02 12.14 126.68 12.14 133.53 23.57 133.56 23.57 133.56 12.14 137.2 12.14 137.2 27.87 131.55 27.87 124.71 16.45 124.67 16.45 124.67 27.87 121.02 27.87 121.02 12.14"/>
      <path fill="#0074b3" d="m161.95,12.14h4.75l6.52,15.72h-4.05l-1.09-2.77h-7.39l-1.09,2.77h-4.06l6.41-15.72m.11,9.6h4.66l-2.37-5.9-2.29,5.9Z"/>
    </g>
  </g>
</svg>