<svg xmlns="http://www.w3.org/2000/svg"
  xmlns:xlink="http://www.w3.org/1999/xlink" viewBox="0 0 36.22 40.01">
  <defs>
    <linearGradient id="linear-gradient" x1="-.02" y1="4.98" x2="30.64" y2="31.5" gradientUnits="userSpaceOnUse">
      <stop offset="0" stop-color="#53c0ed"/>
      <stop offset="1" stop-color="#0070af"/>
    </linearGradient>
  </defs>
  <g>
    <g>
      <path fill="url(#linear-gradient)" d="m33.84,9.36L18.22.24c-.54-.31-1.2-.31-1.74,0L.87,9.36c-.54.31-.87.89-.87,1.52v18.24c0,.63.33,1.21.87,1.52l9.78,5.7v-4.29c0-.24-.3-.62-.51-.74l-.47-.28s0,0,0,0l-4.95-2.87c-.41-.24-.67-.69-.67-1.17v-13.99c0-.48.25-.93.67-1.17l11.97-6.99c.41-.24.92-.24,1.33,0l11.97,6.99c.41.24.67.69.67,1.17v13.99c0,.48-.25.93-.67,1.17l-8.64,5.11s-.76.45-1.33.12c-.6-.34-.58-1.01-.58-1.01v-6.07s0-.03,0-.04c0-.01,0-.03,0-.04v-.04s0-.05,0-.07c-.08-1.14-1.02-2.16-2.17-2.16s-2.17,1.09-2.17,2.31c0,.02,0,.03,0,.05v11.69s0,.03,0,.04h0c.05.65.59,1.37,1.27,1.71h0c.22.14.57.22.82.24.11.01.22.01.32,0,.24-.02.48-.1.7-.22l15.61-9.12c.54-.31.87-.9.87-1.52V10.88c0-.63-.33-1.21-.87-1.52Z"/>
      <path fill="#0074b3" d="m20.51,19.95c0,1.76-1.42,3.18-3.18,3.18s-3.18-1.42-3.18-3.18,1.42-3.18,3.18-3.18,3.18,1.42,3.18,3.18Z"/>
    </g>
  </g>
</svg>